G04 DipTrace 3.3.1.3*
G04 BottomSilk.gbr*
%MOIN*%
G04 #@! TF.FileFunction,Legend,Bot*
G04 #@! TF.Part,Single*
%ADD10C,0.009843*%
%ADD25C,0.023611*%
%ADD27C,0.005*%
%ADD31C,0.015422*%
%ADD85C,0.004632*%
%ADD86C,0.00772*%
%FSLAX26Y26*%
G04*
G70*
G90*
G75*
G01*
G04 BotSilk*
%LPD*%
X1234978Y736734D2*
D10*
X1286119D1*
X549722Y523847D2*
X502477D1*
X549722Y456907D2*
X502477D1*
D25*
X646193Y490377D3*
X1010425Y753046D2*
D27*
X1035435Y728081D1*
X1185379D1*
X1210389Y753046D1*
Y803041D1*
X1185379Y828071D1*
X1210389Y853036D1*
Y903031D1*
X1185379Y928062D1*
X1210389Y953026D1*
Y1003021D1*
X1185379Y1028052D1*
X1210389Y1053082D1*
Y1103077D1*
X1185379Y1128042D1*
X1135360D1*
X1110464Y1103077D1*
X1085454Y1128042D1*
X1035435D1*
X1010425Y1103077D1*
Y1053082D1*
X1035435Y1028052D1*
X1010425Y1003021D1*
Y953026D1*
X1035435Y928062D1*
X1010425Y903031D1*
Y853036D1*
X1035435Y828071D1*
X1010425Y803041D1*
Y753046D1*
D31*
X451594Y543589D3*
X501736Y552790D2*
D10*
Y670895D1*
X521421D1*
Y552790D1*
X501736D1*
X627479Y730335D2*
X427481D1*
Y1030313D1*
X627479D1*
Y730335D1*
X427481Y761617D2*
X152503D1*
X427481Y799070D2*
X152503D1*
Y761617D2*
X132558Y780343D1*
X152503Y799070D2*
X132558Y780343D1*
X427481Y861562D2*
X152503D1*
X427481Y899086D2*
X152503D1*
Y861562D2*
X132558Y880360D1*
X152503Y899086D2*
X132558Y880360D1*
X427481Y961578D2*
X152503D1*
X427481Y999102D2*
X152503D1*
Y961578D2*
X132558Y980305D1*
X152503Y999102D2*
X132558Y980305D1*
X1352006Y1180607D2*
X1752041D1*
Y1280612D1*
X1352006D1*
Y1180607D1*
X1326927Y480339D2*
X1701927D1*
Y642839D1*
X1326927D1*
Y480339D1*
X922971Y496947D2*
D85*
X920119Y498373D1*
X917234Y501258D1*
X915808Y504110D1*
Y509847D1*
X917234Y512732D1*
X920119Y515584D1*
X922971Y517043D1*
X927282Y518469D1*
X934478D1*
X938756Y517043D1*
X941641Y515584D1*
X944493Y512732D1*
X945952Y509847D1*
Y504110D1*
X944493Y501258D1*
X941641Y498373D1*
X938756Y496947D1*
X945952Y473324D2*
X915841D1*
X935904Y487683D1*
Y466161D1*
X1317376Y811316D2*
X1314524Y812742D1*
X1311639Y815627D1*
X1310213Y818479D1*
Y824216D1*
X1311639Y827101D1*
X1314524Y829953D1*
X1317376Y831412D1*
X1321687Y832838D1*
X1328883D1*
X1333161Y831412D1*
X1336046Y829953D1*
X1338898Y827101D1*
X1340357Y824216D1*
Y818479D1*
X1338898Y815627D1*
X1336046Y812742D1*
X1333161Y811316D1*
X1320261Y783383D2*
X1324572Y784842D1*
X1327457Y787694D1*
X1328883Y792005D1*
Y793431D1*
X1327457Y797742D1*
X1324572Y800593D1*
X1320261Y802053D1*
X1318835D1*
X1314524Y800594D1*
X1311672Y797742D1*
X1310246Y793431D1*
Y792005D1*
X1311672Y787694D1*
X1314524Y784842D1*
X1320261Y783383D1*
X1327457D1*
X1334620Y784842D1*
X1338931Y787694D1*
X1340357Y792005D1*
Y794856D1*
X1338931Y799167D1*
X1336046Y800593D1*
X829343Y504738D2*
X830769Y507590D1*
X833654Y510475D1*
X836506Y511901D1*
X842243D1*
X845128Y510475D1*
X847980Y507590D1*
X849439Y504738D1*
X850865Y500427D1*
Y493231D1*
X849439Y488953D1*
X847980Y486068D1*
X845128Y483216D1*
X842243Y481757D1*
X836506D1*
X833654Y483216D1*
X830769Y486068D1*
X829343Y488953D1*
X820079Y506131D2*
X817194Y507590D1*
X812883Y511868D1*
Y481757D1*
X802161Y504705D2*
Y506131D1*
X800735Y509016D1*
X799309Y510442D1*
X796424Y511868D1*
X790687D1*
X787835Y510442D1*
X786409Y509016D1*
X784950Y506131D1*
Y503279D1*
X786409Y500394D1*
X789261Y496116D1*
X803620Y481757D1*
X783524D1*
X563088Y569744D2*
Y539600D1*
X553040D1*
X548729Y541059D1*
X545843Y543911D1*
X544417Y546796D1*
X542992Y551074D1*
Y558270D1*
X544417Y562581D1*
X545843Y565433D1*
X548729Y568318D1*
X553040Y569744D1*
X563088D1*
X533728Y563973D2*
X530843Y565433D1*
X526532Y569710D1*
Y539600D1*
X1237193Y1159058D2*
Y1189202D1*
X1248667Y1159058D1*
X1260141Y1189202D1*
Y1159058D1*
X1227929Y1183431D2*
X1225044Y1184891D1*
X1220733Y1189168D1*
Y1159058D1*
X521802Y714829D2*
X524654Y713436D1*
X527539Y710551D1*
X528965Y707666D1*
X530424Y703355D1*
Y696192D1*
X528965Y691881D1*
X527539Y689029D1*
X524654Y686144D1*
X521802Y684718D1*
X516065D1*
X513180Y686144D1*
X510328Y689029D1*
X508902Y691881D1*
X507443Y696192D1*
Y703355D1*
X508902Y707666D1*
X510328Y710551D1*
X513180Y713436D1*
X516065Y714829D1*
X521802D1*
X517491Y690455D2*
X508902Y681833D1*
X498179Y709059D2*
X495294Y710518D1*
X490983Y714796D1*
Y684685D1*
X829191Y1024860D2*
X816291D1*
X811980Y1026319D1*
X810521Y1027745D1*
X809095Y1030597D1*
Y1033482D1*
X810521Y1036334D1*
X811980Y1037793D1*
X816291Y1039219D1*
X829191D1*
Y1009075D1*
X819143Y1024860D2*
X809095Y1009075D1*
X794095D2*
X779735Y1039185D1*
X799831D1*
X836087Y544644D2*
X823187D1*
X818876Y546103D1*
X817417Y547529D1*
X815991Y550381D1*
Y553266D1*
X817417Y556118D1*
X818876Y557577D1*
X823187Y559003D1*
X836087D1*
Y528859D1*
X826039Y544644D2*
X815991Y528859D1*
X788057Y548955D2*
X789516Y544644D1*
X792368Y541759D1*
X796679Y540333D1*
X798105D1*
X802416Y541759D1*
X805268Y544644D1*
X806727Y548955D1*
Y550381D1*
X805268Y554692D1*
X802416Y557544D1*
X798105Y558970D1*
X796679D1*
X792368Y557544D1*
X789516Y554692D1*
X788057Y548955D1*
Y541759D1*
X789516Y534596D1*
X792368Y530285D1*
X796679Y528859D1*
X799531D1*
X803842Y530285D1*
X805268Y533170D1*
X652276Y1052606D2*
X639376D1*
X635065Y1054065D1*
X633606Y1055491D1*
X632180Y1058343D1*
Y1061228D1*
X633606Y1064080D1*
X635065Y1065539D1*
X639376Y1066965D1*
X652276D1*
Y1036821D1*
X642228Y1052606D2*
X632180Y1036821D1*
X601395Y1059802D2*
X602821Y1062654D1*
X605706Y1065539D1*
X608558Y1066965D1*
X614295D1*
X617180Y1065539D1*
X620032Y1062654D1*
X621491Y1059802D1*
X622917Y1055491D1*
Y1048295D1*
X621491Y1044017D1*
X620032Y1041132D1*
X617180Y1038280D1*
X614295Y1036821D1*
X608558D1*
X605706Y1038280D1*
X602821Y1041132D1*
X601395Y1044017D1*
X592131Y1031846D2*
X564872D1*
X535513Y1062654D2*
X538365Y1065539D1*
X542676Y1066965D1*
X548413D1*
X552724Y1065539D1*
X555609Y1062654D1*
Y1059802D1*
X554150Y1056917D1*
X552724Y1055491D1*
X549872Y1054065D1*
X541250Y1051180D1*
X538365Y1049754D1*
X536939Y1048295D1*
X535513Y1045443D1*
Y1041132D1*
X538365Y1038280D1*
X542676Y1036821D1*
X548413D1*
X552724Y1038280D1*
X555609Y1041132D1*
X526249Y1066965D2*
Y1036821D1*
X495464Y1059802D2*
X496890Y1062654D1*
X499775Y1065539D1*
X502627Y1066965D1*
X508364D1*
X511249Y1065539D1*
X514101Y1062654D1*
X515560Y1059802D1*
X516986Y1055491D1*
Y1048295D1*
X515560Y1044017D1*
X514101Y1041132D1*
X511249Y1038280D1*
X508364Y1036821D1*
X502627D1*
X499775Y1038280D1*
X496890Y1041132D1*
X495464Y1044017D1*
Y1048295D1*
X502627D1*
X466104Y1066965D2*
Y1036821D1*
X486200Y1066965D1*
Y1036821D1*
X433860D2*
X445367Y1066965D1*
X456841Y1036821D1*
X452530Y1046869D2*
X438171D1*
X424596Y1066965D2*
Y1036821D1*
X407385D1*
X1667649Y1310186D2*
X1654749D1*
X1650438Y1311645D1*
X1648979Y1313071D1*
X1647553Y1315923D1*
Y1318808D1*
X1648979Y1321660D1*
X1650438Y1323119D1*
X1654749Y1324545D1*
X1667649D1*
Y1294401D1*
X1657601Y1310186D2*
X1647553Y1294401D1*
X1616767Y1317382D2*
X1618193Y1320234D1*
X1621078Y1323119D1*
X1623930Y1324545D1*
X1629667D1*
X1632552Y1323119D1*
X1635404Y1320234D1*
X1636863Y1317382D1*
X1638289Y1313071D1*
Y1305875D1*
X1636863Y1301597D1*
X1635404Y1298712D1*
X1632552Y1295861D1*
X1629667Y1294401D1*
X1623930D1*
X1621078Y1295861D1*
X1618193Y1298712D1*
X1616767Y1301597D1*
X1607504Y1289427D2*
X1580245D1*
X1560933Y1324545D2*
Y1294401D1*
X1570981Y1324545D2*
X1550885D1*
X1522985D2*
X1541622D1*
Y1294401D1*
X1522985D1*
X1541622Y1310186D2*
X1530148D1*
X1513721Y1324545D2*
Y1294401D1*
X1496510D1*
X1468610Y1324545D2*
X1487247D1*
Y1294401D1*
X1468610D1*
X1487247Y1310186D2*
X1475773D1*
X1436398Y1294401D2*
Y1324545D1*
X1447872Y1294401D1*
X1459346Y1324545D1*
Y1294401D1*
X1519058Y682462D2*
X1521910Y685347D1*
X1526221Y686773D1*
X1531958D1*
X1536269Y685347D1*
X1539154Y682462D1*
Y679610D1*
X1537695Y676725D1*
X1536269Y675299D1*
X1533417Y673873D1*
X1524795Y670988D1*
X1521910Y669562D1*
X1520484Y668103D1*
X1519058Y665251D1*
Y660940D1*
X1521910Y658088D1*
X1526221Y656629D1*
X1531958D1*
X1536269Y658088D1*
X1539154Y660940D1*
X1508336Y679577D2*
Y681003D1*
X1506910Y683888D1*
X1505484Y685314D1*
X1502599Y686740D1*
X1496862D1*
X1494010Y685314D1*
X1492584Y683888D1*
X1491125Y681003D1*
Y678151D1*
X1492584Y675266D1*
X1495436Y670988D1*
X1509795Y656629D1*
X1489699D1*
X706305Y977608D2*
D86*
X711058Y982417D1*
X718243Y984793D1*
X727805D1*
X734990Y982417D1*
X739798Y977608D1*
Y972855D1*
X737367Y968047D1*
X734990Y965670D1*
X730237Y963293D1*
X715867Y958485D1*
X711058Y956108D1*
X708682Y953677D1*
X706305Y948923D1*
Y941738D1*
X711058Y936985D1*
X718243Y934553D1*
X727805D1*
X734990Y936985D1*
X739798Y941738D1*
X690866Y984793D2*
Y934553D1*
X639557Y972855D2*
X641933Y977608D1*
X646742Y982417D1*
X651495Y984793D1*
X661057D1*
X665865Y982417D1*
X670618Y977608D1*
X673050Y972855D1*
X675427Y965670D1*
Y953677D1*
X673050Y946547D1*
X670618Y941738D1*
X665865Y936985D1*
X661057Y934553D1*
X651495D1*
X646742Y936985D1*
X641933Y941738D1*
X639557Y946547D1*
Y953677D1*
X651495D1*
X693313Y899758D2*
X717190D1*
X719566Y878258D1*
X717190Y880634D1*
X710005Y883066D1*
X702875D1*
X695690Y880634D1*
X690881Y875881D1*
X688505Y868696D1*
Y863943D1*
X690881Y856758D1*
X695690Y851950D1*
X702875Y849573D1*
X710005D1*
X717190Y851950D1*
X719566Y854381D1*
X721998Y859135D1*
X673066Y899813D2*
X653942Y849573D1*
X634819Y899813D1*
X734489Y793204D2*
X736865Y797957D1*
X741674Y802766D1*
X746427Y805142D1*
X755989D1*
X760797Y802766D1*
X765550Y797957D1*
X767982Y793204D1*
X770359Y786019D1*
Y774026D1*
X767982Y766896D1*
X765550Y762087D1*
X760797Y757334D1*
X755989Y754902D1*
X746427D1*
X741674Y757334D1*
X736865Y762087D1*
X734489Y766896D1*
Y774026D1*
X746427D1*
X685556Y805142D2*
Y754902D1*
X719050Y805142D1*
Y754902D1*
X670117Y805142D2*
Y754902D1*
X653370D1*
X646185Y757334D1*
X641377Y762087D1*
X639000Y766896D1*
X636624Y774026D1*
Y786019D1*
X639000Y793204D1*
X641377Y797957D1*
X646185Y802766D1*
X653370Y805142D1*
X670117D1*
M02*
