G04 DipTrace 3.3.1.3*
G04 BottomAssy.gbr*
%MOIN*%
G04 #@! TF.FileFunction,Drawing,Bot*
G04 #@! TF.Part,Single*
%ADD10C,0.009843*%
%ADD27C,0.005*%
%ADD87C,0.006*%
%ADD88C,0.003088*%
%FSLAX26Y26*%
G04*
G70*
G90*
G75*
G01*
G04 BotAssy*
%LPD*%
X994437Y713037D2*
D27*
X1801717D1*
X2136437D1*
Y1303058D1*
X1801717D1*
X994437D1*
Y713037D1*
X1801717D2*
Y1303058D1*
X407437Y711041D2*
D10*
Y1049607D1*
X1312654Y1170767D2*
X1791394D1*
X1818410Y683032D2*
D87*
X1878698Y660018D1*
X1818410Y637070D1*
X1838506Y645692D2*
Y674410D1*
X1878698Y735224D2*
X1818410D1*
X1878698Y695032D1*
X1818410D1*
X1878698Y767320D2*
X1818410D1*
X1878698Y747224D2*
Y787416D1*
Y836690D2*
Y799416D1*
X1818410D1*
Y836690D1*
X1849980Y799416D2*
Y822364D1*
X1878698Y888882D2*
X1818410D1*
X1878698Y848690D1*
X1818410D1*
X1878698Y941074D2*
X1818410D1*
X1878698Y900882D1*
X1818410D1*
Y999036D2*
X1878698Y976022D1*
X1818410Y953074D1*
X1838506Y961696D2*
Y990414D1*
X422282Y1070180D2*
D88*
X402186D1*
Y1078802D1*
X403158Y1081676D1*
X404109Y1082626D1*
X406010Y1083577D1*
X408884D1*
X410808Y1082626D1*
X411758Y1081676D1*
X412709Y1078802D1*
X413682Y1081676D1*
X414632Y1082626D1*
X416534Y1083577D1*
X418457D1*
X420358Y1082626D1*
X421331Y1081676D1*
X422282Y1078802D1*
Y1070180D1*
X412709D2*
Y1078802D1*
X422282Y1095501D2*
X421331Y1093577D1*
X419408Y1091676D1*
X417506Y1090703D1*
X414632Y1089753D1*
X409835D1*
X406983Y1090703D1*
X405060Y1091676D1*
X403158Y1093577D1*
X402186Y1095501D1*
Y1099325D1*
X403158Y1101227D1*
X405060Y1103150D1*
X406983Y1104101D1*
X409835Y1105051D1*
X414632D1*
X417506Y1104101D1*
X419408Y1103150D1*
X421331Y1101227D1*
X422282Y1099325D1*
Y1095501D1*
X402186Y1126548D2*
X422282Y1118876D1*
X402186Y1111227D1*
X408884Y1114101D2*
Y1123674D1*
X412709Y1132723D2*
Y1141323D1*
X413682Y1144197D1*
X414632Y1145170D1*
X416534Y1146121D1*
X418457D1*
X420358Y1145170D1*
X421331Y1144197D1*
X422282Y1141323D1*
Y1132723D1*
X402186D1*
X412709Y1139422D2*
X402186Y1146121D1*
X422282Y1152297D2*
X402186D1*
Y1158995D1*
X403158Y1161869D1*
X405060Y1163793D1*
X406983Y1164743D1*
X409835Y1165694D1*
X414632D1*
X417506Y1164743D1*
X419408Y1163793D1*
X421331Y1161869D1*
X422282Y1158995D1*
Y1152297D1*
Y1203735D2*
Y1191310D1*
X402186D1*
Y1203735D1*
X412709Y1191310D2*
Y1198959D1*
X422282Y1209910D2*
X402186D1*
Y1216609D1*
X403158Y1219483D1*
X405060Y1221406D1*
X406983Y1222357D1*
X409835Y1223308D1*
X414632D1*
X417506Y1222357D1*
X419408Y1221406D1*
X421331Y1219483D1*
X422282Y1216609D1*
Y1209910D1*
X417506Y1243831D2*
X419408Y1242881D1*
X421331Y1240957D1*
X422282Y1239056D1*
Y1235231D1*
X421331Y1233308D1*
X419408Y1231407D1*
X417506Y1230434D1*
X414632Y1229483D1*
X409835D1*
X406983Y1230434D1*
X405060Y1231407D1*
X403158Y1233308D1*
X402186Y1235231D1*
Y1239056D1*
X403158Y1240957D1*
X405060Y1242881D1*
X406983Y1243831D1*
X409835D1*
Y1239056D1*
X422282Y1262432D2*
Y1250007D1*
X402186D1*
Y1262432D1*
X412709Y1250007D2*
Y1257656D1*
X427521Y1294746D2*
X425620Y1292823D1*
X422746Y1290922D1*
X418921Y1288998D1*
X414124Y1288048D1*
X410299D1*
X405524Y1288998D1*
X401699Y1290922D1*
X398825Y1292823D1*
X396924Y1294746D1*
X415583Y1300922D2*
X402186D1*
X411758D2*
X414632Y1303796D1*
X415583Y1305719D1*
Y1308571D1*
X414632Y1310495D1*
X411758Y1311445D1*
X402186D1*
X411758D2*
X414632Y1314319D1*
X415583Y1316243D1*
Y1319095D1*
X414632Y1321018D1*
X411758Y1321991D1*
X402186D1*
X422282Y1328166D2*
X421331Y1329117D1*
X422282Y1330090D1*
X423254Y1329117D1*
X422282Y1328166D1*
X415583Y1329117D2*
X402186D1*
X415583Y1336265D2*
X402186D1*
X411758D2*
X414632Y1339140D1*
X415583Y1341063D1*
Y1343915D1*
X414632Y1345838D1*
X411758Y1346789D1*
X402186D1*
X422282Y1352964D2*
X421331Y1353915D1*
X422282Y1354888D1*
X423254Y1353915D1*
X422282Y1352964D1*
X415583Y1353915D2*
X402186D1*
X415583Y1361064D2*
X402186D1*
X411758D2*
X414632Y1363938D1*
X415583Y1365861D1*
Y1368713D1*
X414632Y1370636D1*
X411758Y1371587D1*
X402186D1*
X411758D2*
X414632Y1374461D1*
X415583Y1376384D1*
Y1379236D1*
X414632Y1381160D1*
X411758Y1382132D1*
X402186D1*
X415583Y1399782D2*
X402186D1*
X412709D2*
X414632Y1397881D1*
X415583Y1395957D1*
Y1393105D1*
X414632Y1391182D1*
X412709Y1389281D1*
X409835Y1388308D1*
X407934D1*
X405060Y1389281D1*
X403158Y1391182D1*
X402186Y1393105D1*
Y1395957D1*
X403158Y1397881D1*
X405060Y1399782D1*
X422282Y1405958D2*
X402186D1*
X427521Y1412133D2*
X425620Y1414057D1*
X422746Y1415958D1*
X418921Y1417881D1*
X414124Y1418832D1*
X410299D1*
X405524Y1417881D1*
X401699Y1415958D1*
X398825Y1414057D1*
X396924Y1412133D1*
X1452588Y1137395D2*
Y1157491D1*
X1461210D1*
X1464084Y1156518D1*
X1465034Y1155568D1*
X1465985Y1153666D1*
Y1150792D1*
X1465034Y1148869D1*
X1464084Y1147918D1*
X1461210Y1146968D1*
X1464084Y1145995D1*
X1465034Y1145044D1*
X1465985Y1143143D1*
Y1141220D1*
X1465034Y1139318D1*
X1464084Y1138346D1*
X1461210Y1137395D1*
X1452588D1*
Y1146968D2*
X1461210D1*
X1477909Y1137395D2*
X1475985Y1138346D1*
X1474084Y1140269D1*
X1473111Y1142170D1*
X1472161Y1145044D1*
Y1149842D1*
X1473111Y1152694D1*
X1474084Y1154617D1*
X1475985Y1156518D1*
X1477909Y1157491D1*
X1481733D1*
X1483635Y1156518D1*
X1485558Y1154617D1*
X1486509Y1152694D1*
X1487459Y1149842D1*
Y1145044D1*
X1486509Y1142170D1*
X1485558Y1140269D1*
X1483635Y1138346D1*
X1481733Y1137395D1*
X1477909D1*
X1508956Y1157491D2*
X1501284Y1137395D1*
X1493635Y1157491D1*
X1496509Y1150792D2*
X1506082D1*
X1515131Y1146968D2*
X1523731D1*
X1526605Y1145995D1*
X1527578Y1145044D1*
X1528529Y1143143D1*
Y1141220D1*
X1527578Y1139318D1*
X1526605Y1138346D1*
X1523731Y1137395D1*
X1515131D1*
Y1157491D1*
X1521830Y1146968D2*
X1528529Y1157491D1*
X1534704Y1137395D2*
Y1157491D1*
X1541403D1*
X1544277Y1156518D1*
X1546200Y1154617D1*
X1547151Y1152694D1*
X1548102Y1149842D1*
Y1145044D1*
X1547151Y1142170D1*
X1546200Y1140269D1*
X1544277Y1138346D1*
X1541403Y1137395D1*
X1534704D1*
X1586142D2*
X1573718D1*
Y1157491D1*
X1586142D1*
X1573718Y1146968D2*
X1581367D1*
X1592318Y1137395D2*
Y1157491D1*
X1599017D1*
X1601891Y1156518D1*
X1603814Y1154617D1*
X1604765Y1152694D1*
X1605715Y1149842D1*
Y1145044D1*
X1604765Y1142170D1*
X1603814Y1140269D1*
X1601891Y1138346D1*
X1599017Y1137395D1*
X1592318D1*
X1626239Y1142170D2*
X1625288Y1140269D1*
X1623365Y1138346D1*
X1621464Y1137395D1*
X1617639D1*
X1615716Y1138346D1*
X1613814Y1140269D1*
X1612842Y1142170D1*
X1611891Y1145044D1*
Y1149842D1*
X1612842Y1152694D1*
X1613814Y1154617D1*
X1615716Y1156518D1*
X1617639Y1157491D1*
X1621464D1*
X1623365Y1156518D1*
X1625288Y1154617D1*
X1626239Y1152694D1*
Y1149842D1*
X1621464D1*
X1644839Y1137395D2*
X1632415D1*
Y1157491D1*
X1644839D1*
X1632415Y1146968D2*
X1640064D1*
M02*
