M48
INCH
T01C0.0118
T02C0.0197
T03C0.0394
T04C0.0433
%
T01
X+017002Y+008548
X+017711Y+008249
X+017746Y+007688
X+016186Y+008204
X+015069Y+007573
X+015339Y+007197
X+014834Y+006968
X+014545Y+007551
X+014654Y+008670
X+015044Y+009160
X+014664Y+009537
X+013962Y+009799
X+013548Y+009599
X+013117Y+009634
X+013136Y+008841
X+013411Y+007370
X+013244Y+005532
X+011797Y+005500
X+011087Y+005259
X+010812Y+006305
X+009596Y+006237
X+009066Y+005656
X+009465Y+004509
X+007258Y+004488
X+007759Y+006880
X+009472Y+007235
X+009048Y+008391
X+008672Y+009214
X+007674Y+009006
X+007041Y+008765
X+006982Y+011126
X+007479Y+011842
X+007866Y+011459
X+008727Y+012441
X+008203Y+012870
X+009632Y+011920
X+010607Y+012526
X+009183Y+010633
X+005515Y+011914
X+004329Y+009038
X+004307Y+008181
X+005081Y+006470
X+013193Y+011273
X+014638Y+010299
X+015088Y+011425
X+015503Y+012717
X+016612Y+010301
X+016259Y+009566
X+017773Y+010317
X+016175Y+006476
X+015505Y+006465
X+014909Y+004963
T02
X+011622Y+012285
X+012114Y+012285
X+012606Y+012285
X+013099Y+012285
X+014605Y+011759
X+017236Y+009947
X+017369Y+006150
X+005240Y+005215
T03
X+010604Y+007781
X+011604Y+007781
X+011604Y+008781
X+011604Y+009781
X+011604Y+010781
X+010604Y+010781
X+010604Y+009781
X+010604Y+008781
T04
X+005275Y+007803
X+005275Y+008803
X+005275Y+009803
X+014020Y+012306
X+015020Y+012306
X+016020Y+012306
X+017020Y+012306
T00
M30
