G04 DipTrace 3.3.1.3*
G04 Top.gbr*
%MOIN*%
G04 #@! TF.FileFunction,Copper,L1,Top*
G04 #@! TF.Part,Single*
G04 #@! TA.AperFunction,Conductor*
%ADD10C,0.009843*%
%ADD14C,0.011811*%
%ADD15C,0.019685*%
%ADD16C,0.031496*%
%ADD18C,0.03937*%
G04 #@! TA.AperFunction,CopperBalancing*
%ADD19C,0.015748*%
%ADD20C,0.025*%
%ADD21R,0.043307X0.03937*%
%ADD22R,0.03937X0.043307*%
%ADD23R,0.059055X0.051181*%
%ADD24R,0.051181X0.059055*%
G04 #@! TA.AperFunction,ComponentPad*
%ADD29R,0.05937X0.05937*%
%ADD30C,0.05937*%
%ADD33R,0.066929X0.066929*%
%ADD34C,0.066929*%
%ADD35R,0.11811X0.059055*%
G04 #@! TA.AperFunction,ComponentPad*
%ADD36R,0.041339X0.045276*%
%ADD37O,0.041339X0.045276*%
%ADD38R,0.070866X0.015748*%
%ADD40R,0.037402X0.084646*%
%ADD41R,0.127953X0.084646*%
%ADD43R,0.102362X0.066929*%
G04 #@! TA.AperFunction,ViaPad*
%ADD44C,0.024409*%
%ADD45C,0.043307*%
%FSLAX26Y26*%
G04*
G70*
G90*
G75*
G01*
G04 Top*
%LPD*%
X1258933Y604917D2*
D14*
X1348066D1*
X1366941Y623793D1*
D15*
X1422144D1*
Y622811D1*
X1485049Y630680D2*
X1466774D1*
Y619430D1*
X959604Y623744D2*
D14*
X978430Y604917D1*
X1030587D1*
X1422144Y622811D2*
D15*
X1477180D1*
X1485049Y630680D1*
X1723600Y994706D2*
X1697636D1*
X1691933Y989003D1*
X1460541Y1175923D2*
Y1101314D1*
X1471913Y1089941D1*
Y1074643D1*
X1485049Y630680D2*
D14*
X1501581Y614147D1*
D15*
X1649643D1*
D14*
Y568180D1*
X1651903D1*
D15*
Y597522D1*
X1669370Y614990D1*
X1736902D1*
X1667029Y720029D2*
D16*
Y566820D1*
Y491683D1*
X1485049Y630680D2*
D14*
X1500739Y614990D1*
X1669370D1*
X1667029Y491683D2*
D3*
X1651903Y568180D2*
X1665670D1*
X1667029Y566820D1*
X816451Y1255728D2*
D15*
X820332D1*
Y1287016D1*
X459092Y1053182D2*
D14*
X469836Y1063927D1*
Y937976D1*
X527479Y880333D1*
X816451Y1188799D2*
X903728D1*
Y1189049D1*
X1030587Y579327D2*
X958234D1*
X904017Y525110D1*
X670570D1*
X638475Y557205D1*
Y1119062D1*
X658314Y1138900D1*
X742797D1*
X792696Y1188799D1*
X816451D1*
X1401112Y1006999D2*
X1389810D1*
Y1059469D1*
X1404984Y1074643D1*
X1401112Y1006999D2*
D10*
Y974980D1*
X1396182Y979909D1*
X1324392Y553239D2*
X1258436D1*
X1258933Y553736D1*
X1108686Y525858D2*
X1085383Y502555D1*
X1030587D1*
X1211427Y1228508D2*
X1200969D1*
X1249898Y1179579D1*
Y707280D1*
D14*
X1258933D1*
X1160412Y878052D2*
D10*
Y852916D1*
X1117759Y810262D1*
Y717175D1*
X1134567Y700366D1*
Y503944D1*
X1107588Y476965D1*
X1030587D1*
X1258933Y681689D2*
D14*
X1301551D1*
X1310543Y690681D1*
Y733458D1*
X1297029Y746972D1*
X1279953D1*
Y1182135D1*
X1271501Y1190587D1*
Y1200797D1*
X1268171D1*
Y1236039D1*
X1260639Y1228508D1*
X694500Y719108D2*
Y654923D1*
X693262D1*
X1258933Y579327D2*
X1344478D1*
X1366941Y556864D1*
X1422144Y555882D2*
D15*
X1367923D1*
D14*
X1366941Y556864D1*
X1444198Y489563D2*
X1427873D1*
D15*
Y550154D1*
D14*
X1422144Y555882D1*
D15*
X1485049Y555877D1*
X1661156Y1030056D2*
D14*
Y1031793D1*
X1698541Y1069177D1*
X1468041Y1006999D2*
Y1025633D1*
X1463766Y1029907D1*
X699130Y1088647D2*
X668407D1*
X660281Y1080521D1*
Y753327D1*
X694500Y719108D1*
X698232Y1112556D2*
X701209D1*
Y1086568D1*
X699130Y1088647D1*
X450182Y1126546D2*
X450050Y1126678D1*
D16*
Y1194100D1*
D14*
X449736Y1194413D1*
D16*
Y1260046D1*
X450182Y1126546D2*
D14*
X440403Y1116766D1*
D15*
Y1102365D1*
X418601Y1080563D1*
Y918130D1*
D14*
X432942Y903789D1*
X725780Y448820D2*
X727820Y450861D1*
D15*
X946457D1*
X725780Y448820D2*
D14*
X723127Y451472D1*
D15*
X642949D1*
D14*
X561995Y532427D1*
Y593087D1*
X508112Y646970D1*
X1444198Y489563D2*
X1446318Y491683D1*
D18*
X1576478D1*
X1030587Y528146D2*
D14*
X980333D1*
X930608Y478420D1*
X648492D1*
X584390Y542522D1*
Y1221727D1*
X601455Y1238793D1*
X629440D1*
X629504Y1184180D2*
X629000Y1183676D1*
X613608D1*
Y553176D1*
X664188Y502596D1*
X920142D1*
X971282Y553736D1*
X1030587D1*
X1179707Y549965D2*
D10*
Y539642D1*
X1214484Y504865D1*
X1258933D1*
Y502555D1*
X1160412Y978052D2*
X1188692D1*
X1231513Y935231D1*
Y755396D1*
X1207056Y730940D1*
Y540885D1*
X1219795Y528146D1*
X1258933D1*
X823550Y784507D2*
D14*
X805971D1*
X910139Y680339D1*
X1030587D1*
Y681689D1*
X694500Y786037D2*
X696030Y784507D1*
X823550D1*
Y575845D2*
Y586038D1*
X895814Y658302D1*
X1028383D1*
X1030587Y656098D1*
X693262Y587993D2*
X705411Y575845D1*
X823550D1*
X1030587Y707280D2*
X1011220D1*
X959152Y759348D1*
Y917427D1*
X850007Y1026572D1*
X770673D1*
X746934Y1050311D1*
Y1069522D1*
X766059Y1088647D1*
X1631612Y1069177D2*
X1619365Y1056930D1*
Y994642D1*
X1625004Y989003D1*
X1379815Y862413D2*
D10*
X1384413Y867012D1*
X1465445D1*
X1625934Y956643D2*
Y988072D1*
X1625004Y989003D1*
X1030587Y630508D2*
X1081157D1*
X1313625Y884098D2*
X1358130D1*
X1379815Y862413D1*
X1602024Y1230612D2*
D14*
X1624554D1*
Y1196707D1*
X1547731Y1119885D1*
Y1071622D1*
X1541668D1*
X1696577Y1119427D2*
Y1225165D1*
X1702024Y1230612D1*
X1369395Y489563D2*
D19*
Y417287D1*
D15*
X628219D1*
X523999Y521508D1*
X1757581Y491683D2*
D14*
X1749188Y483291D1*
D15*
Y433683D1*
X1732793Y417287D1*
X1369395D1*
X1060412Y978052D2*
D10*
X1072083D1*
X1120751Y929385D1*
X1192802D1*
X1205459Y916727D1*
Y754844D1*
X1153913Y703298D1*
Y512299D1*
X1189248Y476965D1*
X1258941D1*
X1258933Y656098D2*
X1309927D1*
X1335272Y681444D1*
X1402717D1*
X1434273Y713000D1*
Y732690D1*
X1425496Y741467D1*
Y788638D1*
X1465374Y828516D1*
X1464135D1*
X1580444Y944824D1*
Y1080051D1*
X1619819Y1119427D1*
X1629648D1*
X1258933Y630508D2*
D14*
X1309907D1*
D10*
X1342945Y663546D1*
X1413419D1*
X1454488Y704615D1*
Y755122D1*
X1466428Y953657D2*
D14*
X1523575D1*
X1541668Y971751D1*
Y1004693D1*
X1354781Y959885D2*
D10*
X1348554Y953657D1*
X1466428D1*
X526021Y1053182D2*
D14*
X517112Y1062092D1*
Y1126546D1*
X696433Y1184180D2*
X747938D1*
X551487Y1191367D2*
Y1194100D1*
X516979D1*
X516665Y1260046D2*
X536081Y1279462D1*
X686783D1*
X696369Y1269877D1*
Y1238793D1*
D44*
X959604Y623744D3*
D45*
X1723600Y994706D3*
X1460541Y1175923D3*
X1736902Y614990D3*
D44*
X820332Y1287016D3*
D3*
X1396182Y979909D3*
X1324392Y553239D3*
X1108686Y525858D3*
X1179707Y549965D3*
X1465445Y867012D3*
X1625934Y956643D3*
X1081157Y630508D3*
X1313625Y884098D3*
D45*
X523999Y521508D3*
D44*
X1454488Y755122D3*
X1466428Y953657D3*
X1354781Y959885D3*
X1466428Y953657D3*
X747938Y1184180D3*
X551487Y1191367D3*
X1700173Y854752D3*
X1483399Y696827D3*
X1661156Y1030056D3*
X1463766Y1029907D3*
X1319343Y1127322D3*
X1777290Y1031706D3*
X1504365Y916010D3*
X1311661Y963390D3*
X872705Y1244102D3*
X963196Y1192039D3*
X947177Y723451D3*
X946457Y450861D3*
X698232Y1112556D3*
X867175Y921425D3*
X906633Y565552D3*
X1533874Y719684D3*
X1506896Y757336D3*
X918259Y1063270D3*
X1341060Y737041D3*
X1508751Y1142529D3*
X508112Y646970D3*
X1060698Y1252622D3*
X767366Y900638D3*
X1771133Y824934D3*
X1618567Y820385D3*
X904780Y839104D3*
X786585Y1145883D3*
X775945Y688042D3*
X1490920Y496319D3*
X432942Y903789D3*
X430747Y818063D3*
X1550315Y1271699D3*
X1550454Y646541D3*
X1617467Y647581D3*
X704062Y876462D3*
X1774556Y768814D3*
X725780Y448820D3*
X949243Y1263979D2*
D20*
X1115733D1*
X1750465D2*
X1783430D1*
X949243Y1239110D2*
X1115733D1*
X1760692D2*
X1783466D1*
X949243Y1214241D2*
X1115733D1*
X1758898D2*
X1783502D1*
X949243Y1189373D2*
X1115733D1*
X1543557D2*
X1560482D1*
X1743575D2*
X1783538D1*
X949243Y1164504D2*
X1219152D1*
X1311673D2*
X1414541D1*
X1506560D2*
X1548497D1*
X1728324D2*
X1783574D1*
X787369Y1139635D2*
X1219152D1*
X1311673D2*
X1424876D1*
X1496226D2*
X1523665D1*
X1744042D2*
X1783610D1*
X813529Y1114766D2*
X1019671D1*
X1101141D2*
X1119681D1*
X1201150D2*
X1219152D1*
X1311673D2*
X1357521D1*
X1744042D2*
X1783646D1*
X813529Y1089898D2*
X1006251D1*
X1311673D2*
X1357521D1*
X1746015D2*
X1783682D1*
X813529Y1065029D2*
X1006538D1*
X1311673D2*
X1357521D1*
X1746015D2*
X1783718D1*
X670207Y1040160D2*
X717024D1*
X880273D2*
X1020856D1*
X1200002D2*
X1219152D1*
X1311673D2*
X1353646D1*
X1746015D2*
X1783753D1*
X670207Y1015291D2*
X738124D1*
X905141D2*
X1020174D1*
X1200647D2*
X1219152D1*
X1311673D2*
X1353646D1*
X1766111D2*
X1783789D1*
X670207Y990423D2*
X842332D1*
X930009D2*
X1006358D1*
X1311673D2*
X1334125D1*
X1770883D2*
X1783825D1*
X670207Y965554D2*
X867200D1*
X954877D2*
X1006394D1*
X1760369D2*
X1783861D1*
X670207Y940685D2*
X892067D1*
X979744D2*
X1020317D1*
X1660180D2*
X1783861D1*
X426626Y915816D2*
X448144D1*
X670207D2*
X916935D1*
X990869D2*
X1020712D1*
X1332127D2*
X1508988D1*
X1593902D2*
X1783897D1*
X426626Y890948D2*
X469172D1*
X670207D2*
X927413D1*
X990869D2*
X1006502D1*
X1702237D2*
X1783933D1*
X426626Y866079D2*
X469997D1*
X670207D2*
X927413D1*
X990869D2*
X1006287D1*
X1702237D2*
X1783969D1*
X426626Y841210D2*
X483813D1*
X670207D2*
X746557D1*
X900548D2*
X927413D1*
X990869D2*
X1019779D1*
X1519263D2*
X1532492D1*
X1702237D2*
X1784005D1*
X426590Y816341D2*
X468203D1*
X900548D2*
X927413D1*
X990869D2*
X1004887D1*
X1494395D2*
X1532492D1*
X1702237D2*
X1784040D1*
X426590Y791472D2*
X468203D1*
X900548D2*
X927413D1*
X990869D2*
X1004887D1*
X1311673D2*
X1394876D1*
X1470784D2*
X1784076D1*
X426590Y766604D2*
X468203D1*
X900548D2*
X927413D1*
X1321254D2*
X1394733D1*
X1490628D2*
X1577240D1*
X1756816D2*
X1784112D1*
X426590Y741735D2*
X468203D1*
X900548D2*
X933334D1*
X1341062D2*
X1394733D1*
X1489910D2*
X1577240D1*
X1756816D2*
X1784148D1*
X426590Y716866D2*
X552675D1*
X740002D2*
X829772D1*
X917449D2*
X957807D1*
X1342282D2*
X1395702D1*
X1485245D2*
X1577240D1*
X1756816D2*
X1784184D1*
X426590Y691997D2*
X552675D1*
X740002D2*
X854640D1*
X1482267D2*
X1577240D1*
X1756816D2*
X1784220D1*
X426554Y667129D2*
X552675D1*
X738782D2*
X860812D1*
X1540399D2*
X1577240D1*
X1756816D2*
X1784256D1*
X426554Y642260D2*
X552675D1*
X738782D2*
X835944D1*
X426554Y617391D2*
X552675D1*
X900548D2*
X922138D1*
X426554Y592522D2*
X552675D1*
X900548D2*
X927593D1*
X426554Y567654D2*
X552675D1*
X1540399D2*
X1616246D1*
X1708588D2*
X1784399D1*
X426554Y542785D2*
X481875D1*
X426518Y517916D2*
X476672D1*
X426518Y493047D2*
X486684D1*
X1495616D2*
X1531954D1*
X426518Y468178D2*
X527915D1*
X1495616D2*
X1531954D1*
X426518Y443310D2*
X552782D1*
X426518Y418441D2*
X577650D1*
X1741556Y1112189D2*
X1743521D1*
Y1035031D1*
X1750039Y1031096D1*
X1755406Y1026512D1*
X1759990Y1021145D1*
X1763677Y1015127D1*
X1766379Y1008606D1*
X1768026Y1001743D1*
X1768580Y994706D1*
X1768026Y987670D1*
X1766379Y980806D1*
X1763677Y974285D1*
X1759990Y968267D1*
X1755406Y962900D1*
X1750039Y958316D1*
X1744020Y954628D1*
X1736902Y951759D1*
X1736914Y945991D1*
X1659798D1*
X1657593Y940512D1*
X1654680Y935758D1*
X1651059Y931518D1*
X1646819Y927897D1*
X1642065Y924984D1*
X1636914Y922851D1*
X1631493Y921549D1*
X1625934Y921112D1*
X1620376Y921549D1*
X1614955Y922851D1*
X1609803Y924984D1*
X1605049Y927897D1*
X1603774Y928903D1*
X1600412Y924844D1*
X1590852Y915284D1*
X1699747Y915268D1*
Y809559D1*
X1534983D1*
Y859416D1*
X1489459Y813756D1*
X1486854Y810170D1*
X1465684Y788877D1*
X1470619Y786781D1*
X1475373Y783868D1*
X1479613Y780247D1*
X1483234Y776007D1*
X1486147Y771253D1*
X1488281Y766102D1*
X1489582Y760680D1*
X1490020Y755122D1*
X1489582Y749564D1*
X1488281Y744142D1*
X1486147Y738991D1*
X1482741Y733612D1*
X1482649Y702399D1*
X1481956Y698021D1*
X1480586Y693805D1*
X1478574Y689856D1*
X1475968Y686270D1*
X1474456Y684635D1*
X1478126Y679597D1*
X1537903D1*
Y647337D1*
X1627930Y647316D1*
X1627954Y654414D1*
X1579726Y654379D1*
Y785679D1*
X1754333D1*
Y656450D1*
X1760404Y653342D1*
X1766114Y649193D1*
X1771105Y644202D1*
X1775254Y638492D1*
X1778458Y632203D1*
X1780639Y625490D1*
X1781743Y618519D1*
Y611460D1*
X1780639Y604489D1*
X1778458Y597776D1*
X1775254Y591487D1*
X1771105Y585777D1*
X1766114Y580786D1*
X1760404Y576637D1*
X1754115Y573433D1*
X1747402Y571252D1*
X1740431Y570148D1*
X1733372D1*
X1726401Y571252D1*
X1719688Y573433D1*
X1713399Y576637D1*
X1707689Y580786D1*
X1706565Y581826D1*
X1706104Y557311D1*
X1709057Y557332D1*
Y450433D1*
X1715570Y450457D1*
X1715553Y557332D1*
X1786927D1*
X1785907Y1288829D1*
X946740Y1286260D1*
Y1144068D1*
X860717D1*
Y1159534D1*
X859464Y1143819D1*
X789023D1*
X776904Y1131666D1*
X811039Y1131659D1*
Y1055835D1*
X852300Y1055714D1*
X856831Y1054997D1*
X861193Y1053579D1*
X865280Y1051497D1*
X868991Y1048801D1*
X929139Y988781D1*
X981381Y936411D1*
X984077Y932700D1*
X986159Y928613D1*
X987577Y924251D1*
X988294Y919720D1*
X988385Y834749D1*
Y771486D1*
X1007400Y752599D1*
Y831064D1*
X1035871D1*
X1029253Y835164D1*
X1022927Y840567D1*
X1017525Y846892D1*
X1013178Y853985D1*
X1009995Y861670D1*
X1008053Y869759D1*
X1007400Y878052D1*
X1008053Y886345D1*
X1009995Y894433D1*
X1013178Y902119D1*
X1017525Y909211D1*
X1022927Y915537D1*
X1029253Y920939D1*
X1036345Y925286D1*
X1042856Y928036D1*
X1036345Y930818D1*
X1029253Y935164D1*
X1022927Y940567D1*
X1017525Y946892D1*
X1013178Y953985D1*
X1009995Y961670D1*
X1008053Y969759D1*
X1007400Y978052D1*
X1008053Y986345D1*
X1009995Y994433D1*
X1013178Y1002119D1*
X1017525Y1009211D1*
X1022927Y1015537D1*
X1029253Y1020939D1*
X1036345Y1025286D1*
X1042856Y1028036D1*
X1036345Y1030818D1*
X1029253Y1035164D1*
X1022927Y1040567D1*
X1017525Y1046892D1*
X1013178Y1053985D1*
X1009995Y1061670D1*
X1008053Y1069759D1*
X1007400Y1078052D1*
X1008053Y1086345D1*
X1009995Y1094433D1*
X1013178Y1102119D1*
X1017525Y1109211D1*
X1022927Y1115537D1*
X1029253Y1120939D1*
X1036345Y1125286D1*
X1044031Y1128469D1*
X1052119Y1130411D1*
X1060412Y1131064D1*
X1068705Y1130411D1*
X1076794Y1128469D1*
X1084479Y1125286D1*
X1091572Y1120939D1*
X1097897Y1115537D1*
X1103300Y1109211D1*
X1107646Y1102119D1*
X1110396Y1095608D1*
X1113178Y1102119D1*
X1117525Y1109211D1*
X1122927Y1115537D1*
X1129253Y1120939D1*
X1136345Y1125286D1*
X1144031Y1128469D1*
X1152119Y1130411D1*
X1160412Y1131064D1*
X1168705Y1130411D1*
X1176794Y1128469D1*
X1184479Y1125286D1*
X1191572Y1120939D1*
X1197897Y1115537D1*
X1203300Y1109211D1*
X1207646Y1102119D1*
X1210829Y1094433D1*
X1212771Y1086345D1*
X1213424Y1078052D1*
X1212771Y1069759D1*
X1210829Y1061670D1*
X1207646Y1053985D1*
X1203300Y1046892D1*
X1197897Y1040567D1*
X1191572Y1035164D1*
X1184479Y1030818D1*
X1177968Y1028068D1*
X1184479Y1025286D1*
X1191572Y1020939D1*
X1197897Y1015537D1*
X1203300Y1009211D1*
X1207646Y1002119D1*
X1209991Y996706D1*
X1221633Y985060D1*
X1221650Y1167853D1*
X1206757Y1182771D1*
X1206210Y1182543D1*
X1118218D1*
Y1274472D1*
X1206210D1*
Y1274164D1*
X1211427Y1274472D1*
X1218309Y1273931D1*
X1225022Y1272319D1*
X1231400Y1269677D1*
X1235996Y1266932D1*
X1240665Y1269677D1*
X1247044Y1272319D1*
X1253757Y1273931D1*
X1260639Y1274472D1*
X1267522Y1273931D1*
X1274235Y1272319D1*
X1280613Y1269677D1*
X1285209Y1266932D1*
X1289878Y1269677D1*
X1296256Y1272319D1*
X1302969Y1273931D1*
X1309852Y1274472D1*
X1316734Y1273931D1*
X1323447Y1272319D1*
X1329826Y1269677D1*
X1335712Y1266070D1*
X1340962Y1261586D1*
X1345236Y1256602D1*
X1345232Y1287403D1*
X1458815D1*
X1458839Y1267495D1*
X1465141Y1273796D1*
X1472350Y1279034D1*
X1480291Y1283080D1*
X1488766Y1285834D1*
X1497568Y1287228D1*
X1506479D1*
X1515281Y1285834D1*
X1523757Y1283080D1*
X1531697Y1279034D1*
X1538907Y1273796D1*
X1545208Y1267495D1*
X1550446Y1260285D1*
X1552004Y1257504D1*
X1556078Y1263993D1*
X1561866Y1270769D1*
X1568643Y1276557D1*
X1576241Y1281213D1*
X1584474Y1284623D1*
X1593139Y1286704D1*
X1602024Y1287403D1*
X1610908Y1286704D1*
X1619573Y1284623D1*
X1627806Y1281213D1*
X1635405Y1276557D1*
X1642181Y1270769D1*
X1647969Y1263993D1*
X1652004Y1257504D1*
X1656078Y1263993D1*
X1661866Y1270769D1*
X1668643Y1276557D1*
X1676241Y1281213D1*
X1684474Y1284623D1*
X1693139Y1286704D1*
X1702024Y1287403D1*
X1710908Y1286704D1*
X1719573Y1284623D1*
X1727806Y1281213D1*
X1735405Y1276557D1*
X1742181Y1270769D1*
X1747969Y1263993D1*
X1752625Y1256394D1*
X1756035Y1248161D1*
X1758116Y1239496D1*
X1758815Y1230612D1*
X1758116Y1221727D1*
X1756035Y1213062D1*
X1752625Y1204829D1*
X1747969Y1197230D1*
X1742181Y1190454D1*
X1735405Y1184666D1*
X1727806Y1180010D1*
X1725797Y1179084D1*
X1725810Y1162404D1*
X1741558Y1162438D1*
Y1112164D1*
X667672Y831017D2*
X737512D1*
Y813757D1*
X749031Y813739D1*
X749042Y841298D1*
X898058D1*
X898095Y733724D1*
X922225Y709593D1*
X967590Y709571D1*
X936924Y740363D1*
X934228Y744074D1*
X932145Y748161D1*
X930728Y752524D1*
X930010Y757054D1*
X929920Y842025D1*
Y905289D1*
X837874Y997364D1*
X768380Y997430D1*
X763849Y998148D1*
X759486Y999565D1*
X755399Y1001648D1*
X751688Y1004344D1*
X726264Y1029641D1*
X723285Y1033129D1*
X720888Y1037040D1*
X719133Y1041278D1*
X718508Y1043496D1*
X716551Y1045635D1*
X667707Y1045571D1*
Y831019D1*
X737512Y755267D2*
Y674127D1*
X736270D1*
X736274Y605092D1*
X749010Y605077D1*
X749042Y632636D1*
X828862Y632691D1*
X872632Y676461D1*
X821441Y727696D1*
X749042Y727715D1*
Y755310D1*
X737535Y755274D1*
X1356131Y995385D2*
Y1050010D1*
X1359971D1*
X1360004Y1117655D1*
X1427359D1*
X1427371Y1145559D1*
X1424151Y1149484D1*
X1420463Y1155502D1*
X1417762Y1162023D1*
X1416114Y1168886D1*
X1415643Y1173813D1*
X1345232Y1173820D1*
Y1200382D1*
X1340962Y1195429D1*
X1335712Y1190946D1*
X1329826Y1187339D1*
X1323447Y1184697D1*
X1316734Y1183085D1*
X1309191Y1182569D1*
X1309185Y919355D1*
X1313625Y919630D1*
X1319183Y919192D1*
X1324605Y917891D1*
X1330621Y915273D1*
X1462197Y915268D1*
Y902385D1*
X1468233Y902434D1*
X1473740Y901562D1*
X1479042Y899839D1*
X1484010Y897307D1*
X1489137Y893461D1*
X1520105Y924434D1*
X1486650Y924425D1*
X1482559Y921999D1*
X1477408Y919865D1*
X1471986Y918563D1*
X1466428Y918126D1*
X1460869Y918563D1*
X1455448Y919865D1*
X1450297Y921999D1*
X1444918Y925404D1*
X1363076Y925335D1*
X1357569Y924463D1*
X1351993D1*
X1345720Y925551D1*
X1339825Y926792D1*
X1335729Y928488D1*
X1331950Y930804D1*
X1328579Y933683D1*
X1325701Y937054D1*
X1323385Y940833D1*
X1321688Y944928D1*
X1319687Y954326D1*
X1319249Y959885D1*
X1319687Y965443D1*
X1320988Y970864D1*
X1323122Y976015D1*
X1326035Y980769D1*
X1329656Y985009D1*
X1333896Y988630D1*
X1338650Y991543D1*
X1343801Y993677D1*
X1349222Y994979D1*
X1354781Y995416D1*
X1356142Y995363D1*
X1493116Y506956D2*
Y450460D1*
X1534426Y450457D1*
X1534451Y506952D1*
X1493112Y506959D1*
X1537903Y580974D2*
X1538125Y557332D1*
X1618506D1*
Y450462D1*
X1625002Y453592D1*
Y548793D1*
X1622349Y553121D1*
X1620357Y557930D1*
X1619142Y562991D1*
X1618733Y568180D1*
Y580990D1*
X1537936Y580978D1*
X1493714Y1117655D2*
X1516894D1*
X1517029Y1116602D1*
X1518500D1*
X1518859Y1124457D1*
X1519929Y1128918D1*
X1521685Y1133156D1*
X1524082Y1137067D1*
X1527067Y1140561D1*
X1570120Y1183614D1*
X1565141Y1187427D1*
X1558839Y1193729D1*
X1553601Y1200938D1*
X1552043Y1203719D1*
X1547969Y1197230D1*
X1542181Y1190454D1*
X1535405Y1184666D1*
X1527806Y1180010D1*
X1519573Y1176600D1*
X1510908Y1174519D1*
X1505487Y1173956D1*
X1504967Y1168886D1*
X1503320Y1162023D1*
X1500618Y1155502D1*
X1496931Y1149484D1*
X1493704Y1145586D1*
X1493710Y1117683D1*
X859464Y1159535D2*
Y1143819D1*
Y1286032D2*
Y1218067D1*
X860717Y1234882D1*
Y1286060D1*
Y1218025D2*
Y1234029D1*
X440593Y1010171D2*
X424158D1*
X424003Y416235D1*
X581876Y416736D1*
X522020Y476578D1*
X516962Y477081D1*
X510099Y478729D1*
X503578Y481430D1*
X497560Y485118D1*
X492193Y489702D1*
X487609Y495069D1*
X483921Y501087D1*
X481220Y507608D1*
X479572Y514471D1*
X479018Y521508D1*
X479572Y528544D1*
X481220Y535408D1*
X483921Y541929D1*
X487609Y547947D1*
X492193Y553314D1*
X497560Y557898D1*
X503578Y561586D1*
X510099Y564287D1*
X516962Y565934D1*
X523999Y566488D1*
X531035Y565934D1*
X537898Y564287D1*
X544419Y561586D1*
X550437Y557898D1*
X555166Y553904D1*
X555157Y723558D1*
X470688Y723542D1*
Y837125D1*
X490596Y837149D1*
X484295Y843450D1*
X479056Y850660D1*
X475011Y858600D1*
X472257Y867076D1*
X470863Y875878D1*
Y884789D1*
X472257Y893591D1*
X472394Y894077D1*
X447608Y918992D1*
X444911Y922703D1*
X442829Y926790D1*
X441411Y931152D1*
X440694Y935683D1*
X440604Y1010139D1*
X1406469Y809559D2*
X1309151D1*
X1309185Y773522D1*
X1314211Y770622D1*
X1317705Y767636D1*
X1332772Y752443D1*
X1335468Y748732D1*
X1337551Y744645D1*
X1338968Y740282D1*
X1339686Y735752D1*
X1339776Y709667D1*
X1391000Y709692D1*
X1404234Y722910D1*
X1401411Y726708D1*
X1399398Y730657D1*
X1398028Y734873D1*
X1397335Y739251D1*
X1397248Y788638D1*
X1397596Y793057D1*
X1398631Y797367D1*
X1400327Y801462D1*
X1402643Y805242D1*
X1406460Y809551D1*
X971856Y471354D2*
X971827Y478280D1*
X949593Y456191D1*
X945881Y453495D1*
X941794Y451413D1*
X939632Y450616D1*
X958928Y450457D1*
X971810D1*
X971827Y471349D1*
X898058Y619180D2*
Y560473D1*
X935339Y597773D1*
X930858Y602859D1*
X927945Y607613D1*
X925811Y612764D1*
X924510Y618186D1*
X924072Y623744D1*
X924483Y629075D1*
X907920Y629069D1*
X898037Y619185D1*
X1706104Y581839D2*
Y566845D1*
X1486579Y924421D2*
X1482559Y921999D1*
X1477408Y919865D1*
X1471986Y918563D1*
X1466428Y918126D1*
X1460869Y918563D1*
X1455448Y919865D1*
X1450297Y921999D1*
X1444918Y925404D1*
X1698541Y1069177D2*
D19*
X1743485D1*
X694500Y719108D2*
X737476D1*
X693262Y654923D2*
X736239D1*
X1444198Y489563D2*
X1493080D1*
X1485049Y555877D2*
Y506995D1*
Y555877D2*
X1537867D1*
X1007436Y778052D2*
X1060412D1*
X699130Y1088647D2*
Y1045671D1*
X860753Y1255978D2*
X946705D1*
X527479Y780333D2*
Y723578D1*
X470724Y780333D2*
X527479D1*
X1402024Y1287367D2*
Y1173856D1*
X1617365Y915232D2*
Y809595D1*
X1535019Y862413D2*
X1699711D1*
X1162214Y1274436D2*
Y1182579D1*
X1118254Y1228508D2*
X1162214D1*
X1576478Y557296D2*
Y491683D1*
X1534487D2*
X1618470D1*
D21*
X1631612Y1069177D3*
X1698541D3*
D22*
X1366941Y623793D3*
Y556864D3*
X1422144Y622811D3*
Y555882D3*
X694500Y786037D3*
Y719108D3*
X693262Y587993D3*
Y654923D3*
D21*
X1401112Y1006999D3*
X1468041D3*
D24*
X1369395Y489563D3*
X1444198D3*
D23*
X1485049Y630680D3*
Y555877D3*
D21*
X450182Y1126546D3*
X517112D3*
X450050Y1194100D3*
X516979D3*
X449736Y1260046D3*
X516665D3*
D29*
X1060412Y778052D3*
D30*
X1160412Y1078052D3*
Y978052D3*
Y878052D3*
Y778052D3*
X1060412Y878052D3*
Y978052D3*
Y1078052D3*
D21*
X766059Y1088647D3*
X699130D3*
X629504Y1184180D3*
X696433D3*
X629440Y1238793D3*
X696369D3*
X1625004Y989003D3*
X1691933D3*
X1404984Y1074643D3*
X1471913D3*
D22*
X1541668Y1004693D3*
Y1071622D3*
D21*
X1629648Y1119427D3*
X1696577D3*
D22*
X816451Y1188799D3*
Y1255728D3*
X903728Y1189049D3*
Y1255978D3*
D21*
X459092Y1053182D3*
X526021D3*
D33*
X527479Y780333D3*
D34*
Y880333D3*
Y980333D3*
D33*
X1402024Y1230612D3*
D34*
X1502024D3*
X1602024D3*
X1702024D3*
D35*
X1379815Y862413D3*
X1617365D3*
D36*
X1162214Y1228508D3*
D37*
X1211427D3*
X1260639D3*
X1309852D3*
D38*
X1030587Y707280D3*
Y681689D3*
Y656098D3*
Y630508D3*
Y604917D3*
Y579327D3*
Y553736D3*
Y528146D3*
Y502555D3*
Y476965D3*
X1258941D3*
X1258933Y502555D3*
Y528146D3*
Y553736D3*
Y579327D3*
Y604917D3*
Y630508D3*
Y656098D3*
Y681689D3*
Y707280D3*
D40*
X1576478Y491683D3*
X1667029D3*
X1757581D3*
D41*
X1667029Y720029D3*
D43*
X823550Y575845D3*
Y784507D3*
M02*
